# xmcd CD database file
#
# Track frame offsets:
#	150
#	12052
#	23382
#	35060
#	48075
#	60407
#	72175
#	85327
#	97650
#	110837
#	121920
#	133410
#	144622
#	155865
#	168357
#	181110
#
# Disc length: 2572 seconds
#
# Revision: 1
# Processed by: cddbd v1.5PL3 Copyright (c) Steve Scherf et al.
# Submitted via: CDex 1.51
#
DISCID=ce0a0a10
DTITLE=Floyd Tillman - The Country Music Hall Of Fame Series
DYEAR=1991
DGENRE=Country
TTITLE0=A Precious Memory
TTITLE1=Why Do I Love You
TTITLE2=I'm Always Dreaming Of You
TTITLE3=Don't Be Blue
TTITLE4=Maybe I'll Get By Without You
TTITLE5=I'd Settle Down For You
TTITLE6=I'll Come Back To You
TTITLE7=Daisy May
TTITLE8=It's Been A Long Long Time
TTITLE9=I've Learned My Lesson Now
TTITLE10=Rio Grande
TTITLE11=They Took The Stars Out Of Heaven
TTITLE12=Why Do You Treat Me This Way
TTITLE13=There's No Use To Try It Anymore
TTITLE14=Dreams Won't Let Me Forget You
TTITLE15=Each Night At Nine
EXTD=YEAR: 1991
EXTT0=
EXTT1=
EXTT2=
EXTT3=
EXTT4=
EXTT5=
EXTT6=
EXTT7=
EXTT8=
EXTT9=
EXTT10=
EXTT11=
EXTT12=
EXTT13=
EXTT14=
EXTT15=
PLAYORDER=
